<?xml version="1.0" encoding="UTF-8"?>
<svg width="12px" height="22px" viewBox="0 0 12 22" version="1.1" xmlns="http://www.w3.org/2000/svg" xmlns:xlink="http://www.w3.org/1999/xlink">
    <!-- Generator: Sketch 48.2 (47327) - http://www.bohemiancoding.com/sketch -->
    <title>Shape Copy 4</title>
    <desc>Created with Sketch.</desc>
    <defs></defs>
    <g id="mobile_23na8.ru" stroke="none" stroke-width="1" fill="none" fill-rule="evenodd" transform="translate(-122.000000, -3428.000000)">
        <g id="Group-6-Copy-2" transform="translate(103.000000, 3414.000000)" fill="#DE5252">
            <path d="M30.1291818,14.379486 L27.4488076,14.375 C24.437499,14.375 22.4914592,16.4576477 22.4914592,19.6810973 L22.4914592,22.1275634 L19.7964628,22.1275634 C19.5635831,22.1275634 19.375,22.3245009 19.375,22.5674204 L19.375,26.112071 C19.375,26.3549905 19.5637981,26.5517037 19.7964628,26.5517037 L22.4914592,26.5517037 L22.4914592,35.4959857 C22.4914592,35.7389052 22.6800423,35.9356184 22.912922,35.9356184 L26.4291257,35.9356184 C26.6620054,35.9356184 26.8505885,35.7386809 26.8505885,35.4959857 L26.8505885,26.5517037 L30.0016678,26.5517037 C30.2345475,26.5517037 30.4231306,26.3549905 30.4231306,26.112071 L30.4244208,22.5674204 C30.4244208,22.4507832 30.3799091,22.3390806 30.3009924,22.2565373 C30.2220756,22.173994 30.1145596,22.1275634 30.002743,22.1275634 L26.8505885,22.1275634 L26.8505885,20.0536635 C26.8505885,19.0568637 27.0783074,18.5508375 28.3231278,18.5508375 L30.1287517,18.5501646 C30.3614164,18.5501646 30.5499995,18.3532271 30.5499995,18.110532 L30.5499995,14.8191187 C30.5499995,14.5766478 30.3616314,14.3799347 30.1291818,14.379486 L30.1291818,14.379486 Z" id="Shape-Copy-4"></path>
        </g>
    </g>
</svg>