<?xml version="1.0" encoding="UTF-8"?>
<svg width="26px" height="22px" viewBox="0 0 26 22" version="1.1" xmlns="http://www.w3.org/2000/svg" xmlns:xlink="http://www.w3.org/1999/xlink">
    <!-- Generator: Sketch 48.2 (47327) - http://www.bohemiancoding.com/sketch -->
    <title>Group 5</title>
    <desc>Created with Sketch.</desc>
    <defs></defs>
    <g id="mobile_23na8.ru" stroke="none" stroke-width="1" fill="none" fill-rule="evenodd" transform="translate(-178.000000, -3428.000000)">
        <g id="Group-8-Copy-2" transform="translate(168.000000, 3414.000000)" fill="#DE5252">
            <g id="Group-5" transform="translate(10.840336, 14.747899)">
                <path d="M13.2025889,16.2938344 C12.2522507,17.2194956 11.3101381,18.1298022 10.3767996,19.0472378 C10.050515,19.368587 9.68365048,19.5462613 9.21533609,19.5215843 C8.89563201,19.5045846 8.71686094,19.3642 8.61870137,19.0609472 C7.90361711,16.8416635 7.17811368,14.6278635 6.46686806,12.4063863 C6.39777249,12.1908739 6.29577428,12.0861338 6.07752003,12.0186834 C4.39290435,11.5043053 2.71157894,10.9778629 1.03299541,10.4442916 C0.774709606,10.3620349 0.514230293,10.2545529 0.291040651,10.1026524 C-0.053888797,9.86904357 -0.104339527,9.4879212 0.204945383,9.21373245 C0.490650061,8.96093043 0.831740866,8.74048267 1.18599273,8.60009803 C3.24515025,7.78411231 5.31527531,6.99444871 7.38211011,6.1976562 C12.6273409,4.17249809 17.8725717,2.14898512 23.1183509,0.123827008 C24.1158495,-0.261682374 24.8824813,0.281211351 24.7788379,1.35986989 C24.7124843,2.04972879 24.5337132,2.72862014 24.3894899,3.40970499 C23.2505098,8.78764314 22.110433,14.1661297 20.9654208,19.5429711 C20.6934256,20.8195939 19.7968283,21.1530074 18.746137,20.37815 C16.9863936,19.0812372 15.2282954,17.7799374 13.4696487,16.4808311 C13.385747,16.4199612 13.298555,16.3612848 13.2025889,16.2938344 L13.2025889,16.2938344 Z M9.25262576,17.9269026 C9.27236735,17.9214188 9.29210894,17.915935 9.31185053,17.9109996 C9.32281808,17.8605489 9.33872103,17.8111949 9.34310805,17.7612926 C9.45607381,16.5422494 9.57562011,15.3237546 9.67377968,14.1025179 C9.69571478,13.8305226 9.78893896,13.6374937 9.99348376,13.4543357 C11.6155844,12.0038772 13.2278143,10.5440963 14.8433344,9.08760563 C16.6315934,7.4748274 18.4204008,5.8636943 20.2020793,4.24433555 C20.3123032,4.14453084 20.3583669,3.97453382 20.434043,3.83634269 C20.2662395,3.81824623 20.0863717,3.7507958 19.9339227,3.79027898 C19.7260876,3.84401997 19.5292201,3.96466302 19.3438685,4.08146743 C15.3971957,6.56726264 11.453813,9.05744487 7.50439829,11.5383047 C7.28120865,11.6786893 7.23953196,11.7976872 7.32453047,12.042812 C7.61571892,12.8790877 7.88058526,13.7230406 8.15532238,14.5653485 C8.52109018,15.6862321 8.88685797,16.8065673 9.25262576,17.9269026 L9.25262576,17.9269026 Z" id="Shape-Copy-2"></path>
            </g>
        </g>
    </g>
</svg>