<?xml version="1.0" encoding="UTF-8"?>
<svg width="21px" height="18px" viewBox="0 0 21 18" version="1.1" xmlns="http://www.w3.org/2000/svg" xmlns:xlink="http://www.w3.org/1999/xlink">
    <!-- Generator: Sketch 48.2 (47327) - http://www.bohemiancoding.com/sketch -->
    <title>Group 6 Copy</title>
    <desc>Created with Sketch.</desc>
    <defs></defs>
    <g id="mobile_23na8.ru" stroke="none" stroke-width="1" fill="none" fill-rule="evenodd" transform="translate(-248.000000, -3430.000000)">
        <g id="Group-8-Copy-2" transform="translate(233.000000, 3414.000000)" fill="#DE5252">
            <g id="Group-6-Copy" transform="translate(15.000000, 16.250000)">
                <path d="M19.7337889,1.98575581 C19.8682413,1.73085548 19.9789668,1.45950997 20.0620109,1.17994186 C20.1411005,0.912707641 20.0580564,0.624916944 19.8484689,0.448131229 C19.6388814,0.275456811 19.3462497,0.254900332 19.1168898,0.394684385 C18.4960363,0.777034884 17.8316834,1.06071429 17.1277857,1.2416113 C16.2854812,0.448131229 15.1742719,0 14.0314268,0 C11.4886953,0 9.4205016,2.15020764 9.4205016,4.79377076 C9.4205016,4.8595515 9.4205016,4.92533223 9.42445608,4.99111296 C6.72354534,4.64165282 4.2322221,3.21503322 2.49225031,0.99904485 C2.35779795,0.826370432 2.15216492,0.740033223 1.94257741,0.75236711 C1.73298989,0.768812292 1.54317479,0.892151163 1.43640379,1.08538206 C1.02909222,1.8130814 0.811595745,2.64767442 0.811595745,3.49460133 C0.811595745,4.30041528 1.00536533,5.07333887 1.35731417,5.75992525 C1.2663611,5.77637043 1.17936251,5.8092608 1.10027288,5.85859635 C0.902548815,5.98193522 0.779959894,6.22450166 0.779959894,6.46295681 C0.779959894,7.88957641 1.38895002,9.19696844 2.37361587,10.0891196 C2.35779795,10.1014535 2.3459345,10.1178987 2.33011658,10.1343439 C2.17984629,10.3111296 2.12843803,10.5578073 2.19961869,10.7839286 C2.62274819,12.1571013 3.60741405,13.2301495 4.83725774,13.7563953 C3.57973268,14.4018688 2.11657458,14.6567691 0.720642674,14.4840947 C0.424056574,14.4553156 0.139333918,14.62799 0.0365174036,14.9281146 C-0.0623446296,15.2241279 0.0444263663,15.5489203 0.297513172,15.7215947 C2.2193911,17.0043189 4.44180961,17.6785714 6.72354534,17.6785714 C14.1896061,17.6785714 18.6542155,11.3718439 18.6542155,5.27479236 L18.6542155,5.06922757 C19.3739311,4.48542359 20.0026936,3.78239203 20.5167762,2.98480066 C20.6749555,2.73812292 20.6591375,2.40921927 20.4732769,2.17898671 C20.2953253,1.94875415 19.9947847,1.87063953 19.7337889,1.98575581 L19.7337889,1.98575581 L19.7337889,1.98575581 Z" id="Shape-Copy-3"></path>
            </g>
        </g>
    </g>
</svg>