<?xml version="1.0" encoding="UTF-8"?>
<svg width="24px" height="15px" viewBox="0 0 24 15" version="1.1" xmlns="http://www.w3.org/2000/svg" xmlns:xlink="http://www.w3.org/1999/xlink">
    <!-- Generator: Sketch 48.2 (47327) - http://www.bohemiancoding.com/sketch -->
    <title>Group 2 Copy 3</title>
    <desc>Created with Sketch.</desc>
    <defs></defs>
    <g id="mobile_23na8.ru" stroke="none" stroke-width="1" fill="none" fill-rule="evenodd" transform="translate(-51.000000, -3432.000000)">
        <g id="Group-7-Copy" transform="translate(38.000000, 3414.000000)" fill="#DE5252">
            <g id="Group-2-Copy-3" transform="translate(13.125000, 18.125000)">
                <path d="M22.4192961,0 L19.8210333,0 C19.1603322,0 18.8557787,0.3530625 18.6906034,0.7423125 C18.6906034,0.7423125 17.3693868,3.9961875 15.4975241,6.1096875 C14.8919432,6.7215 14.616713,6.916125 14.2863624,6.916125 C14.1211871,6.916125 13.882147,6.7215 13.882147,6.165375 L13.882147,0.964875 C13.882147,0.297375 13.6904323,0 13.1397862,0 L9.05680176,0 C8.64386356,0 8.39554387,0.30975 8.39554387,0.603375 C8.39554387,1.236 9.33147525,1.3820625 9.42798216,3.1618125 L9.42798216,7.0275 C9.42798216,7.875 9.27654055,8.02875 8.94619,8.02875 C8.06537891,8.02875 5.92274005,4.76025 4.65200395,1.0205625 C4.4029419,0.293625 4.15313749,0 3.48909576,0 L0.89083296,0 C0.14847216,0 0,0.3530625 0,0.7423125 C0,1.4375625 0.880811089,4.8860625 4.10135783,9.447 C6.24845085,12.5615625 9.27357111,14.25 12.026245,14.25 C13.6778121,14.25 13.882147,13.875 13.882147,13.2290625 L13.882147,10.875 C13.882147,10.125 14.0385995,9.975375 14.5615927,9.975375 C14.9468779,9.975375 15.607579,10.17 17.1490912,11.6716875 C18.910899,13.451625 19.2013477,14.25 20.1922137,14.25 L22.7904765,14.25 C23.5328373,14.25 23.9040177,13.875 23.6898467,13.1349375 C23.4556318,12.3973125 22.6143514,11.32725 21.4983976,10.0588125 C20.8928168,9.335625 19.9843527,8.557125 19.7091225,8.1676875 C19.3236516,7.6670625 19.4338922,7.4445 19.7091225,6.9995625 C19.7091225,6.9995625 22.8747345,2.4945 23.2050851,0.964875 C23.3700747,0.40875 23.2050851,0 22.4192961,0 Z" id="Fill-7"></path>
            </g>
        </g>
    </g>
</svg>