<?xml version="1.0" encoding="UTF-8"?>
<svg width="36px" height="45px" viewBox="0 0 36 45" version="1.1" xmlns="http://www.w3.org/2000/svg" xmlns:xlink="http://www.w3.org/1999/xlink">
    <!-- Generator: Sketch 48.2 (47327) - http://www.bohemiancoding.com/sketch -->
    <title>Group 9</title>
    <desc>Created with Sketch.</desc>
    <defs></defs>
    <g id="desktop_23na8.ru_5" stroke="none" stroke-width="1" fill="none" fill-rule="evenodd" transform="translate(-57.000000, -31.000000)">
        <g id="Group-9" transform="translate(74.000000, 53.500000) rotate(-25.000000) translate(-74.000000, -53.500000) translate(63.000000, 28.000000)" fill="#F06464" fill-rule="nonzero">
            <g id="Group" transform="translate(8.000000, 13.000000) scale(-1, 1) translate(-8.000000, -13.000000) translate(2.000000, 0.000000)">
                <path d="M11.7141818,13.8297872 C11.1615584,14.4785425 10.4786494,14.8675021 9.73714286,14.8675021 L8.67335065,14.8675021 C7.56623377,14.8675021 6.66638961,16.2809666 6.66576623,18.0183194 L6.69537662,19.0814757 L7.94150649,19.0814757 C9.88363636,19.0814757 11.4872727,16.7839231 11.7141818,13.8297872 Z" id="Shape"></path>
                <path d="M2.52561039,4.70181609 C2.60072727,3.37790805 3.74462338,2.32206897 5.1441039,2.32177011 L5.38971429,2.32177011 C6.16238961,2.32177011 6.88893506,2.61016092 7.43563636,3.13434483 C7.98202597,3.65822989 8.28311688,4.35514943 8.28311688,5.09629885 L8.28311688,10.1095172 C8.28342857,11.5302529 7.64727273,12.8741839 6.66483117,13.8161609 C6.48342857,13.990092 6.28893506,14.1487816 6.08571429,14.2934253 C8.54680519,14.2853563 10.545974,12.3637471 10.545974,10.0025287 L10.545974,4.65818391 C10.5453506,2.17383908 8.4374026,0.152712644 5.84664935,0.152712644 L5.39750649,0.152712644 C3.09350649,0.153908046 1.14701299,1.35887356 1.14763636,2.78528736 C1.14763636,3.53271264 1.68498701,4.21737931 2.52561039,4.70181609 Z" id="Shape"></path>
                <path d="M5.3894026,3.57335632 L5.14379221,3.57335632 C4.41568831,3.57335632 3.82348052,4.14147126 3.82348052,4.83958621 L3.82348052,5.22091954 C4.31407792,5.34643678 4.84675325,5.41786207 5.40093506,5.41786207 C5.94358442,5.41786207 6.48031169,5.35002299 6.97807792,5.22301149 L6.97807792,5.0965977 C6.97807792,4.68956322 6.81288312,4.30733333 6.51303896,4.01954023 C6.21257143,3.73174713 5.81361039,3.57335632 5.3894026,3.57335632 Z" id="Shape"></path>
                <path d="M2.49787013,13.7151494 C2.90057143,13.9383908 3.38181818,13.9930805 3.83158442,13.8795172 C5.52187013,13.6807816 6.97776623,11.9534253 6.97776623,10.1095172 L6.97776623,6.50537931 C6.47064935,6.60997701 5.94483117,6.66914943 5.40062338,6.66914943 C3.95875325,6.66914943 2.59418182,6.28990805 1.55937662,5.60195402 C0.997402597,5.2283908 0.565090909,4.78609195 0.273974026,4.30016092 C0.264311688,4.4188046 0.255896104,4.53774713 0.255896104,4.65818391 L0.255896104,10.0031264 C0.255896104,11.5888276 1.15948052,12.9734023 2.49787013,13.7151494 Z" id="Shape"></path>
                <path d="M5.47293506,15.2425747 C5.07054545,15.2425747 4.74451948,15.5168759 4.74451948,15.8554255 L4.74451948,25.3345514 C4.74451948,25.673101 5.07054545,25.9474022 5.47293506,25.9474022 C5.87532468,25.9474022 6.20135065,25.673101 6.20135065,25.3345514 L6.20135065,15.8556877 C6.20135065,15.5171382 5.87532468,15.2425747 5.47293506,15.2425747 Z" id="Shape"></path>
            </g>
            <g id="Group" transform="translate(11.000000, 36.000000) scale(-1, 1) translate(-11.000000, -36.000000) translate(0.000000, 21.000000)">
                <path d="M20.5021277,15.1105263 C20.041844,14.9447368 19.558156,14.8342105 19.0432624,14.8342105 C16.6248227,14.8342105 14.6588652,16.8236842 14.6588652,19.2710526 C14.6588652,20.9842105 15.6340426,22.4526316 17.0382979,23.1947368 L20.5099291,19.9105263 L20.5099291,15.1105263 L20.5021277,15.1105263 Z" id="Shape"></path>
                <path d="M11.7333333,19.2789474 C11.7333333,15.1973684 15.0177305,11.8815789 19.0432624,11.8815789 C19.5425532,11.8815789 20.0340426,11.9368421 20.5021277,12.0315789 L20.5021277,8.92105263 L5.8822695,8.92105263 L5.8822695,13.5394737 L2.17659574,17.0131579 C-0.670921986,19.9026316 -0.670921986,24.5921053 2.17659574,27.4815789 C3.60425532,28.9263158 5.48439716,29.6526316 7.35673759,29.6526316 C9.2212766,29.6526316 11.0780142,28.9421053 12.4822695,27.5210526 L14.822695,25.3105263 C12.958156,23.9605263 11.7333333,21.7657895 11.7333333,19.2789474 Z" id="Shape"></path>
                <rect id="Rectangle-path" x="4.41560284" y="0.0394736842" width="17.5531915" height="5.92105263"></rect>
            </g>
        </g>
    </g>
</svg>