<?xml version="1.0" encoding="UTF-8"?>
<svg width="71px" height="62px" viewBox="0 0 71 62" version="1.1" xmlns="http://www.w3.org/2000/svg" xmlns:xlink="http://www.w3.org/1999/xlink">
    <!-- Generator: Sketch 48.2 (47327) - http://www.bohemiancoding.com/sketch -->
    <title>wallet</title>
    <desc>Created with Sketch.</desc>
    <defs></defs>
    <g id="desktop_23na8.ru_5" stroke="none" stroke-width="1" fill="none" fill-rule="evenodd" transform="translate(-353.000000, -1429.000000)">
        <g id="wallet" transform="translate(353.000000, 1429.000000)" fill-rule="nonzero">
            <path d="M42.7551785,0.308334391 L30.5691333,7.26932842 L12.3272407,7.26932842 C7.83182426,7.26932842 5,11.0199632 5,14.5128856 L5,55.8168084 C5,56.9728323 6.03904809,58 7.20820953,58 L68.7908611,58 C69.9609519,58 71,56.9728323 71,55.8168084 L71,19.5732512 C71,18.4429986 69.9609519,17.4158309 68.7908611,17.4158309 L63.6718299,17.4158309 L63.6718299,9.42674876 C63.6718299,8.29649613 62.6067591,7.26932842 61.4636204,7.26932842 L49.3556432,7.26932842 L45.7700908,1.1044814 C45.3806801,0.436270154 44.6278814,0.0257712327 43.873224,0 C43.4828839,0 43.0414279,0.153706995 42.7551785,0.308334391 Z M43.0674505,5.16345055 L50.2394846,17.4158309 L21.604323,17.4158309 L43.0674505,5.16345055 Z M12.3272407,11.6099403 L22.9556432,11.6099403 L12.7956488,17.4158309 L12.3281701,17.4158309 C10.5093713,17.4158309 9.39225516,15.8741589 9.39225516,14.5128856 C9.39132578,12.8690491 10.6645779,11.6099403 12.3272407,11.6099403 Z M51.9021474,11.6099403 L59.2554108,11.6099403 L59.2554108,17.4149105 L55.3055411,17.4149105 L51.9021474,11.6099403 Z M9.39132578,21.0882316 C10.3011899,21.4987305 11.2881926,21.7564428 12.3272407,21.7564428 L66.6086742,21.7564428 L66.6086742,30.4643583 L54.1363796,30.4643583 C52.7330142,30.4643583 51.9281701,31.7225467 51.9281701,32.6217786 L51.9281701,42.7673607 C51.9281701,43.9233845 52.9932409,44.9505522 54.1363796,44.9505522 L66.6086742,44.9505522 L66.6086742,53.6584677 L9.39132578,53.6584677 L9.39132578,21.0882316 Z M56.3455186,34.8049702 L66.6086742,34.8049702 L66.6086742,40.6108607 L56.3455186,40.6108607 L56.3455186,34.8049702 Z" id="Shape" fill="#191B21" opacity="0.319802989"></path>
            <path d="M37.7551785,4.30833439 L25.5691333,11.2693284 L7.32724072,11.2693284 C2.83182426,11.2693284 0,15.0199632 0,18.5128856 L0,59.8168084 C0,60.9728323 1.03904809,62 2.20820953,62 L63.7908611,62 C64.9609519,62 66,60.9728323 66,59.8168084 L66,23.5732512 C66,22.4429986 64.9609519,21.4158309 63.7908611,21.4158309 L58.6718299,21.4158309 L58.6718299,13.4267488 C58.6718299,12.2964961 57.6067591,11.2693284 56.4636204,11.2693284 L44.3556432,11.2693284 L40.7700908,5.1044814 C40.3806801,4.43627015 39.6278814,4.02577123 38.873224,4 C38.4828839,4 38.0414279,4.153707 37.7551785,4.30833439 Z M38.0674505,9.16345055 L45.2394846,21.4158309 L16.604323,21.4158309 L38.0674505,9.16345055 Z M7.32724072,15.6099403 L17.9556432,15.6099403 L7.79564881,21.4158309 L7.3281701,21.4158309 C5.50937126,21.4158309 4.39225516,19.8741589 4.39225516,18.5128856 C4.39132578,16.8690491 5.66457791,15.6099403 7.32724072,15.6099403 Z M46.9021474,15.6099403 L54.2554108,15.6099403 L54.2554108,21.4149105 L50.3055411,21.4149105 L46.9021474,15.6099403 Z M4.39132578,25.0882316 C5.30118989,25.4987305 6.28819264,25.7564428 7.32724072,25.7564428 L61.6086742,25.7564428 L61.6086742,34.4643583 L49.1363796,34.4643583 C47.7330142,34.4643583 46.9281701,35.7225467 46.9281701,36.6217786 L46.9281701,46.7673607 C46.9281701,47.9233845 47.9932409,48.9505522 49.1363796,48.9505522 L61.6086742,48.9505522 L61.6086742,57.6584677 L4.39132578,57.6584677 L4.39132578,25.0882316 Z M51.3455186,38.8049702 L61.6086742,38.8049702 L61.6086742,44.6108607 L51.3455186,44.6108607 L51.3455186,38.8049702 Z" id="Shape" fill="#FFFFFF"></path>
        </g>
    </g>
</svg>