<?xml version="1.0" encoding="UTF-8"?>
<svg width="90px" height="76px" viewBox="0 0 90 76" version="1.1" xmlns="http://www.w3.org/2000/svg" xmlns:xlink="http://www.w3.org/1999/xlink">
    <!-- Generator: Sketch 48.2 (47327) - http://www.bohemiancoding.com/sketch -->
    <title>brain</title>
    <desc>Created with Sketch.</desc>
    <defs></defs>
    <g id="desktop_23na8.ru_5" stroke="none" stroke-width="1" fill="none" fill-rule="evenodd" transform="translate(-849.000000, -1419.000000)">
        <g id="brain" transform="translate(848.000000, 1421.000000)">
            <g id="brain_2" opacity="0.324105525" transform="translate(4.000000, 0.000000)">
                <g id="noun_1081248_cc" transform="translate(20.284091, 10.625000)" fill="#191B21" fill-rule="nonzero">
                    <path d="M44.9534091,14.2415387 C46.2090909,7.49955137 41.4375,1.23913452 34.6568182,0.0352082053 C31.3920455,-0.205577058 27.625,0.757563995 25.1136364,3.88777242 C22.3511364,0.757563995 18.5840909,-0.446362321 15.3193182,0.275993469 C8.53863636,1.47991978 3.76704545,7.74033663 5.27386364,14.482324 C-1.75795455,19.2980293 -1.75795455,29.1702251 5.27386364,33.9859303 C4.01818182,40.7279177 8.78977273,46.9883345 15.5704545,48.1922609 C18.8352273,48.6738314 22.6022727,47.4699051 25.1136364,44.5804819 C27.625,47.4699051 31.1409091,48.6738314 34.9079545,48.1922609 C41.6886364,46.9883345 46.4602273,40.7279177 44.9534091,33.9859303 C51.9852273,29.1702251 51.9852273,19.057244 44.9534091,14.2415387 Z M16.3238636,43.3765556 C12.0545455,42.6541998 8.78977273,38.0792798 10.5477273,33.7451451 C11.05,32.5412187 10.5477273,31.3372924 9.29204545,30.6149366 C4.26931818,28.4478693 3.51590909,21.7058819 8.03636364,18.3348882 C10.5477273,19.7795998 13.3102273,19.5388145 12.5568182,19.5388145 C13.8125,19.5388145 15.0681818,18.5756735 15.0681818,17.1309619 C15.0681818,15.6862503 14.0636364,14.7231093 12.5568182,14.7231093 C11.5522727,14.7231093 10.7988636,14.482324 10.2965909,14.2415387 C9.04090909,9.907404 12.3056818,5.57326926 16.3238636,4.85091347 C18.8352273,4.36934294 21.3465909,6.05483979 22.3511364,8.70347768 C22.1,9.18504821 21.3465909,9.66661874 19.8397727,9.42583347 C18.5840909,9.18504821 17.3284091,9.907404 16.8261364,11.3521156 C16.3238636,12.7968272 17.5795455,13.7599682 18.8352273,14.0007535 C20.3420455,14.482324 21.5977273,14.2415387 22.6022727,14.0007535 C22.6022727,19.057244 22.6022727,23.632164 22.6022727,28.6886545 C21.0954545,28.207084 19.3375,27.9662987 17.0772727,28.207084 C15.8215909,28.4478693 14.8170455,29.6517956 15.0681818,31.0965072 C15.3193182,32.3004335 16.575,33.2635745 18.0818182,33.0227893 C20.8443182,32.5412187 22.1,33.7451451 22.6022727,34.4675009 L22.6022727,37.8384945 C22.6022727,40.968703 19.8397727,43.8581261 16.3238636,43.3765556 Z M42.1909091,29.8925809 C41.1863636,29.1702251 39.6795455,28.6886545 37.6704545,28.6886545 C36.1636364,28.6886545 35.1590909,29.6517956 35.1590909,31.0965072 C35.1590909,32.5412187 36.1636364,33.5043598 37.6704545,33.5043598 C38.675,33.5043598 39.4284091,33.9859303 39.9306818,34.2267156 C41.4375,38.5608503 38.1727273,42.6541998 33.9034091,43.3765556 C31.3920455,43.8581261 28.8806818,42.1726293 27.8761364,39.5239914 C28.1272727,39.2832061 28.8806818,38.5608503 30.3875,38.8016356 C31.6431818,39.0424209 33.15,38.0792798 33.4011364,36.8753535 C33.6522727,35.6714272 32.6477273,34.2267156 31.3920455,33.9859303 C29.8852273,33.7451451 28.8806818,33.7451451 27.625,34.2267156 L27.625,33.7451451 C27.625,33.7451451 27.625,33.7451451 27.625,33.7451451 L27.625,19.7795998 C29.1318182,20.2611703 30.8897727,20.5019556 33.15,20.2611703 C34.4056818,20.0203851 35.4102273,18.8164587 35.1590909,17.3717472 C34.9079545,16.1678208 33.6522727,15.2046798 32.1454545,15.4454651 C29.3829545,15.9270356 28.1272727,14.482324 27.625,13.7599682 L27.625,10.3889745 C27.625,7.2587661 30.3875,4.36934294 33.9034091,4.85091347 C38.1727273,5.57326926 41.4375,10.1481893 39.6795455,14.482324 C39.1772727,15.6862503 39.6795455,16.8901766 40.9352273,17.6125324 C45.9579545,20.0203851 46.7113636,26.5215872 42.1909091,29.8925809 Z" id="Shape"></path>
                </g>
                <g id="Group-10" transform="translate(0.000000, 49.261364)" fill="#191B21">
                    <rect id="Rectangle-4" transform="translate(10.625000, 11.278409) rotate(45.000000) translate(-10.625000, -11.278409) " x="-1.328125" y="8.46590909" width="23.90625" height="5.625" rx="2.8125"></rect>
                    <rect id="Rectangle-4" transform="translate(10.625000, 11.278409) scale(-1, 1) rotate(45.000000) translate(-10.625000, -11.278409) " x="-1.328125" y="8.46590909" width="23.90625" height="5.625" rx="2.8125"></rect>
                </g>
                <g id="Group-10-Copy" transform="translate(68.579545, 7.727273)" fill="#191B21">
                    <rect id="Rectangle-4" transform="translate(8.210227, 8.210227) rotate(45.000000) translate(-8.210227, -8.210227) " x="0" y="5.47348485" width="16.4204545" height="5.47348485" rx="2.73674242"></rect>
                    <rect id="Rectangle-4" transform="translate(8.210227, 8.210227) scale(-1, 1) rotate(45.000000) translate(-8.210227, -8.210227) " x="0" y="5.47348485" width="16.4204545" height="5.47348485" rx="2.73674242"></rect>
                </g>
                <circle id="Oval-5" stroke="#191B21" stroke-width="4" cx="11.5909091" cy="5.79545455" r="5.79545455"></circle>
                <circle id="Oval-5-Copy" stroke="#191B21" stroke-width="4" cx="79.2045455" cy="56.9886364" r="4.82954545"></circle>
            </g>
            <g id="noun_1081248_cc" transform="translate(20.284091, 14.625000)" fill="#FFFFFF" fill-rule="nonzero">
                <path d="M44.9534091,14.2415387 C46.2090909,7.49955137 41.4375,1.23913452 34.6568182,0.0352082053 C31.3920455,-0.205577058 27.625,0.757563995 25.1136364,3.88777242 C22.3511364,0.757563995 18.5840909,-0.446362321 15.3193182,0.275993469 C8.53863636,1.47991978 3.76704545,7.74033663 5.27386364,14.482324 C-1.75795455,19.2980293 -1.75795455,29.1702251 5.27386364,33.9859303 C4.01818182,40.7279177 8.78977273,46.9883345 15.5704545,48.1922609 C18.8352273,48.6738314 22.6022727,47.4699051 25.1136364,44.5804819 C27.625,47.4699051 31.1409091,48.6738314 34.9079545,48.1922609 C41.6886364,46.9883345 46.4602273,40.7279177 44.9534091,33.9859303 C51.9852273,29.1702251 51.9852273,19.057244 44.9534091,14.2415387 Z M16.3238636,43.3765556 C12.0545455,42.6541998 8.78977273,38.0792798 10.5477273,33.7451451 C11.05,32.5412187 10.5477273,31.3372924 9.29204545,30.6149366 C4.26931818,28.4478693 3.51590909,21.7058819 8.03636364,18.3348882 C10.5477273,19.7795998 13.3102273,19.5388145 12.5568182,19.5388145 C13.8125,19.5388145 15.0681818,18.5756735 15.0681818,17.1309619 C15.0681818,15.6862503 14.0636364,14.7231093 12.5568182,14.7231093 C11.5522727,14.7231093 10.7988636,14.482324 10.2965909,14.2415387 C9.04090909,9.907404 12.3056818,5.57326926 16.3238636,4.85091347 C18.8352273,4.36934294 21.3465909,6.05483979 22.3511364,8.70347768 C22.1,9.18504821 21.3465909,9.66661874 19.8397727,9.42583347 C18.5840909,9.18504821 17.3284091,9.907404 16.8261364,11.3521156 C16.3238636,12.7968272 17.5795455,13.7599682 18.8352273,14.0007535 C20.3420455,14.482324 21.5977273,14.2415387 22.6022727,14.0007535 C22.6022727,19.057244 22.6022727,23.632164 22.6022727,28.6886545 C21.0954545,28.207084 19.3375,27.9662987 17.0772727,28.207084 C15.8215909,28.4478693 14.8170455,29.6517956 15.0681818,31.0965072 C15.3193182,32.3004335 16.575,33.2635745 18.0818182,33.0227893 C20.8443182,32.5412187 22.1,33.7451451 22.6022727,34.4675009 L22.6022727,37.8384945 C22.6022727,40.968703 19.8397727,43.8581261 16.3238636,43.3765556 Z M42.1909091,29.8925809 C41.1863636,29.1702251 39.6795455,28.6886545 37.6704545,28.6886545 C36.1636364,28.6886545 35.1590909,29.6517956 35.1590909,31.0965072 C35.1590909,32.5412187 36.1636364,33.5043598 37.6704545,33.5043598 C38.675,33.5043598 39.4284091,33.9859303 39.9306818,34.2267156 C41.4375,38.5608503 38.1727273,42.6541998 33.9034091,43.3765556 C31.3920455,43.8581261 28.8806818,42.1726293 27.8761364,39.5239914 C28.1272727,39.2832061 28.8806818,38.5608503 30.3875,38.8016356 C31.6431818,39.0424209 33.15,38.0792798 33.4011364,36.8753535 C33.6522727,35.6714272 32.6477273,34.2267156 31.3920455,33.9859303 C29.8852273,33.7451451 28.8806818,33.7451451 27.625,34.2267156 L27.625,33.7451451 C27.625,33.7451451 27.625,33.7451451 27.625,33.7451451 L27.625,19.7795998 C29.1318182,20.2611703 30.8897727,20.5019556 33.15,20.2611703 C34.4056818,20.0203851 35.4102273,18.8164587 35.1590909,17.3717472 C34.9079545,16.1678208 33.6522727,15.2046798 32.1454545,15.4454651 C29.3829545,15.9270356 28.1272727,14.482324 27.625,13.7599682 L27.625,10.3889745 C27.625,7.2587661 30.3875,4.36934294 33.9034091,4.85091347 C38.1727273,5.57326926 41.4375,10.1481893 39.6795455,14.482324 C39.1772727,15.6862503 39.6795455,16.8901766 40.9352273,17.6125324 C45.9579545,20.0203851 46.7113636,26.5215872 42.1909091,29.8925809 Z" id="Shape"></path>
            </g>
            <g id="Group-10" transform="translate(0.000000, 53.261364)" fill="#FFFFFF">
                <rect id="Rectangle-4" transform="translate(10.625000, 11.278409) rotate(45.000000) translate(-10.625000, -11.278409) " x="-1.328125" y="8.46590909" width="23.90625" height="5.625" rx="2.8125"></rect>
                <rect id="Rectangle-4" transform="translate(10.625000, 11.278409) scale(-1, 1) rotate(45.000000) translate(-10.625000, -11.278409) " x="-1.328125" y="8.46590909" width="23.90625" height="5.625" rx="2.8125"></rect>
            </g>
            <g id="Group-10-Copy" transform="translate(68.579545, 11.727273)" fill="#FFFFFF">
                <rect id="Rectangle-4" transform="translate(8.210227, 8.210227) rotate(45.000000) translate(-8.210227, -8.210227) " x="0" y="5.47348485" width="16.4204545" height="5.47348485" rx="2.73674242"></rect>
                <rect id="Rectangle-4" transform="translate(8.210227, 8.210227) scale(-1, 1) rotate(45.000000) translate(-8.210227, -8.210227) " x="0" y="5.47348485" width="16.4204545" height="5.47348485" rx="2.73674242"></rect>
            </g>
            <circle id="Oval-5" stroke="#FFFFFF" stroke-width="4" cx="11.5909091" cy="9.79545455" r="5.79545455"></circle>
            <circle id="Oval-5-Copy" stroke="#FFFFFF" stroke-width="4" cx="79.2045455" cy="60.9886364" r="4.82954545"></circle>
        </g>
    </g>
</svg>