<?xml version="1.0" encoding="UTF-8"?>
<svg width="77px" height="68px" viewBox="0 0 77 68" version="1.1" xmlns="http://www.w3.org/2000/svg" xmlns:xlink="http://www.w3.org/1999/xlink">
    <!-- Generator: Sketch 48.2 (47327) - http://www.bohemiancoding.com/sketch -->
    <title>sofa</title>
    <desc>Created with Sketch.</desc>
    <defs></defs>
    <g id="desktop_23na8.ru_5" stroke="none" stroke-width="1" fill="none" fill-rule="evenodd" transform="translate(-350.000000, -1760.000000)">
        <g id="sofa" transform="translate(350.000000, 1760.000000)" fill-rule="nonzero">
            <path d="M52.3480977,0 L28.6519023,0 C21.6252997,0 15.9291129,5.50350153 15.9291129,12.2924147 L15.9291129,21.6653809 L14.4977991,21.6653809 C9.40843129,21.8791128 5.14053533,25.4487816 4.19258159,30.2846662 C3.24462786,35.1205508 5.86592036,39.9508535 10.5219274,41.9478652 L10.5219274,49.6306244 C10.5030309,52.8001892 12.7411403,55.5667902 15.9291129,56.3146249 L15.9291129,60.6937976 C15.9291129,61.9667188 16.9971479,62.9986254 18.3146359,62.9986254 C18.9539349,63.0203184 19.573835,62.7844624 20.0261664,62.347432 C20.4784978,61.9104017 20.7226115,61.311471 20.7001589,60.6937976 L20.7001589,56.4682801 L60.2998411,56.4682801 L60.2998411,60.3864873 C60.2998411,61.6594085 61.3678761,62.691315 62.6853641,62.691315 C63.9853606,62.6514115 65.0295865,61.6425087 65.0708871,60.3864873 L65.0708871,56.2377973 C68.2588597,55.4899626 70.4969691,52.7233617 70.4780726,49.5537968 L70.4780726,41.8710376 C75.1340796,39.8740259 77.7553721,35.0437232 76.8074184,30.2078386 C75.8594647,25.371954 71.5915687,21.8022852 66.5022009,21.5885533 L65.0708871,21.5885533 L65.0708871,12.2924147 C65.0708871,5.50350153 59.3747003,0 52.3480977,0 Z M20.7001589,12.2924147 C20.7001589,8.04934397 24.2602757,4.60965552 28.6519023,4.60965552 L52.3480977,4.60965552 C56.7397243,4.60965552 60.2998411,8.04934397 60.2998411,12.2924147 L60.2998411,23.2019328 C59.6383788,23.5950604 59.0248744,24.0589527 58.4709401,24.5848294 C57.296368,25.6485935 56.3974374,26.9645366 55.8468648,28.426209 L25.1531352,28.426209 C24.6025626,26.9645366 23.703632,25.6485935 22.5290599,24.5848294 C21.9751256,24.0589527 21.3616212,23.5950604 20.7001589,23.2019328 L20.7001589,12.2924147 Z M25.8687921,33.0358645 L55.1312079,33.0358645 L55.1312079,39.8735202 L25.8687921,39.8735202 L25.8687921,33.0358645 Z M72.3069736,31.5761403 C72.5922919,34.5725794 70.5621714,37.3186058 67.5359276,38.029658 C66.4682491,38.27717 65.7133225,39.1968352 65.7070266,40.2576582 L65.7070266,49.5537968 C65.7070266,50.826718 64.6389915,51.8586245 63.3215036,51.8586245 L17.6784964,51.8586245 C16.3610085,51.8586245 15.2929734,50.826718 15.2929734,49.5537968 L15.2929734,40.2576582 C15.2866775,39.1968352 14.5317509,38.27717 13.4640724,38.029658 C10.422629,37.3575738 8.37131181,34.6072443 8.67377432,31.6070052 C8.97623682,28.606766 11.5383223,26.2905935 14.6568339,26.1982088 L14.8953862,26.1982088 C16.4974093,26.211972 18.0334553,26.8165997 19.1893277,27.8884159 C20.4186277,29.0026377 21.11044,30.5622617 21.0977461,32.190761 L21.0977461,42.178348 C21.0752936,42.7960214 21.3194073,43.3949521 21.7717386,43.8319824 C22.22407,44.2690127 22.8439701,44.5048688 23.4832691,44.4831757 L57.5167309,44.4831757 C58.1560299,44.5048688 58.77593,44.2690127 59.2282614,43.8319824 C59.6805927,43.3949521 59.9247064,42.7960214 59.9022539,42.178348 L59.9022539,32.190761 C59.9229814,30.5674476 60.6159447,29.0198182 61.8262812,27.8937347 C63.0366178,26.7676511 64.6634321,26.1569857 66.3431661,26.1982088 C69.4293054,26.3302329 71.9580673,28.6105728 72.3069736,31.5761403 Z" id="Shape" fill="#191B21" opacity="0.317538496"></path>
            <path d="M48.3480977,5 L24.6519023,5 C17.6252997,5 11.9291129,10.5035015 11.9291129,17.2924147 L11.9291129,26.6653809 L10.4977991,26.6653809 C5.40843129,26.8791128 1.14053533,30.4487816 0.192581592,35.2846662 C-0.755372144,40.1205508 1.86592036,44.9508535 6.52192738,46.9478652 L6.52192738,54.6306244 C6.50303087,57.8001892 8.74114031,60.5667902 11.9291129,61.3146249 L11.9291129,65.6937976 C11.9291129,66.9667188 12.9971479,67.9986254 14.3146359,67.9986254 C14.9539349,68.0203184 15.573835,67.7844624 16.0261664,67.347432 C16.4784978,66.9104017 16.7226115,66.311471 16.7001589,65.6937976 L16.7001589,61.4682801 L56.2998411,61.4682801 L56.2998411,65.3864873 C56.2998411,66.6594085 57.3678761,67.691315 58.6853641,67.691315 C59.9853606,67.6514115 61.0295865,66.6425087 61.0708871,65.3864873 L61.0708871,61.2377973 C64.2588597,60.4899626 66.4969691,57.7233617 66.4780726,54.5537968 L66.4780726,46.8710376 C71.1340796,44.8740259 73.7553721,40.0437232 72.8074184,35.2078386 C71.8594647,30.371954 67.5915687,26.8022852 62.5022009,26.5885533 L61.0708871,26.5885533 L61.0708871,17.2924147 C61.0708871,10.5035015 55.3747003,5 48.3480977,5 Z M16.7001589,17.2924147 C16.7001589,13.049344 20.2602757,9.60965552 24.6519023,9.60965552 L48.3480977,9.60965552 C52.7397243,9.60965552 56.2998411,13.049344 56.2998411,17.2924147 L56.2998411,28.2019328 C55.6383788,28.5950604 55.0248744,29.0589527 54.4709401,29.5848294 C53.296368,30.6485935 52.3974374,31.9645366 51.8468648,33.426209 L21.1531352,33.426209 C20.6025626,31.9645366 19.703632,30.6485935 18.5290599,29.5848294 C17.9751256,29.0589527 17.3616212,28.5950604 16.7001589,28.2019328 L16.7001589,17.2924147 Z M21.8687921,38.0358645 L51.1312079,38.0358645 L51.1312079,44.8735202 L21.8687921,44.8735202 L21.8687921,38.0358645 Z M68.3069736,36.5761403 C68.5922919,39.5725794 66.5621714,42.3186058 63.5359276,43.029658 C62.4682491,43.27717 61.7133225,44.1968352 61.7070266,45.2576582 L61.7070266,54.5537968 C61.7070266,55.826718 60.6389915,56.8586245 59.3215036,56.8586245 L13.6784964,56.8586245 C12.3610085,56.8586245 11.2929734,55.826718 11.2929734,54.5537968 L11.2929734,45.2576582 C11.2866775,44.1968352 10.5317509,43.27717 9.46407244,43.029658 C6.42262899,42.3575738 4.37131181,39.6072443 4.67377432,36.6070052 C4.97623682,33.606766 7.53832225,31.2905935 10.6568339,31.1982088 L10.8953862,31.1982088 C12.4974093,31.211972 14.0334553,31.8165997 15.1893277,32.8884159 C16.4186277,34.0026377 17.11044,35.5622617 17.0977461,37.190761 L17.0977461,47.178348 C17.0752936,47.7960214 17.3194073,48.3949521 17.7717386,48.8319824 C18.22407,49.2690127 18.8439701,49.5048688 19.4832691,49.4831757 L53.5167309,49.4831757 C54.1560299,49.5048688 54.77593,49.2690127 55.2282614,48.8319824 C55.6805927,48.3949521 55.9247064,47.7960214 55.9022539,47.178348 L55.9022539,37.190761 C55.9229814,35.5674476 56.6159447,34.0198182 57.8262812,32.8937347 C59.0366178,31.7676511 60.6634321,31.1569857 62.3431661,31.1982088 C65.4293054,31.3302329 67.9580673,33.6105728 68.3069736,36.5761403 Z" id="Shape" fill="#FFFFFF"></path>
        </g>
    </g>
</svg>