<?xml version="1.0" encoding="UTF-8"?>
<svg width="68px" height="68px" viewBox="0 0 68 68" version="1.1" xmlns="http://www.w3.org/2000/svg" xmlns:xlink="http://www.w3.org/1999/xlink">
    <!-- Generator: Sketch 48.2 (47327) - http://www.bohemiancoding.com/sketch -->
    <title>smile</title>
    <desc>Created with Sketch.</desc>
    <defs></defs>
    <g id="desktop_23na8.ru_5" stroke="none" stroke-width="1" fill="none" fill-rule="evenodd" transform="translate(-858.000000, -1760.000000)">
        <g id="smile" transform="translate(858.000000, 1760.000000)" fill-rule="nonzero">
            <g id="smile_icon" opacity="0.324105525" transform="translate(4.000000, 0.000000)" fill="#191B21">
                <g id="Group">
                    <path d="M32,0 C14.3542857,0 0,14.3542857 0,32 C0,49.6457143 14.3542857,64 32,64 C49.6457143,64 64,49.6457143 64,32 C64,14.3542857 49.6457143,0 32,0 Z M32,59.4285714 C16.8228571,59.4285714 4.57142857,47.1771429 4.57142857,32 C4.57142857,16.8228571 16.8228571,4.57142857 32,4.57142857 C47.1771429,4.57142857 59.4285714,16.8228571 59.4285714,32 C59.4285714,47.1771429 47.1771429,59.4285714 32,59.4285714 Z" id="Shape"></path>
                    <path d="M44.6171429,40.7771429 C41.1428571,43.8857143 36.6628571,45.5314286 32,45.5314286 C27.3371429,45.5314286 22.8571429,43.8857143 19.3828571,40.7771429 C18.4685714,39.9542857 17.0057143,40.0457143 16.1828571,40.96 C15.36,41.8742857 15.4514286,43.3371429 16.3657143,44.16 C20.6628571,48 26.24,50.1028571 32,50.1028571 C37.76,50.1028571 43.3371429,48 47.6342857,44.16 C48.5485714,43.3371429 48.64,41.8742857 47.8171429,40.96 C46.9942857,40.0457143 45.5314286,39.9542857 44.6171429,40.7771429 Z" id="Shape"></path>
                    <path d="M21.0285714,31.0857143 C22.9485714,31.0857143 24.5028571,29.8971429 25.2342857,28.2514286 C25.5085714,27.7028571 25.6,27.0628571 25.6,26.5142857 C25.6,23.9542857 23.5885714,21.9428571 21.0285714,21.9428571 C19.1085714,21.9428571 17.5542857,23.1314286 16.8228571,24.7771429 C16.5485714,25.3257143 16.4571429,25.9657143 16.4571429,26.5142857 C16.4571429,29.0742857 18.4685714,31.0857143 21.0285714,31.0857143 Z" id="Shape"></path>
                    <path d="M37.5771429,28.8 L44.16,32.4571429 C44.5257143,32.64 44.8914286,32.7314286 45.2571429,32.7314286 C46.08,32.7314286 46.8114286,32.2742857 47.2685714,31.5428571 C47.9085714,30.4457143 47.4514286,29.0742857 46.3542857,28.4342857 L43.3371429,26.7885714 L46.3542857,25.1428571 C47.4514286,24.5028571 47.8171429,23.1314286 47.2685714,22.0342857 C46.6285714,20.9371429 45.2571429,20.5714286 44.16,21.12 L37.5771429,24.7771429 C36.48,25.4171429 36.1142857,26.7885714 36.6628571,27.8857143 C36.9371429,28.3428571 37.2114286,28.6171429 37.5771429,28.8 Z" id="Shape"></path>
                </g>
            </g>
            <g id="smile_icon" transform="translate(0.000000, 4.000000)" fill="#FFFFFF">
                <g id="Group">
                    <path d="M32,0 C14.3542857,0 0,14.3542857 0,32 C0,49.6457143 14.3542857,64 32,64 C49.6457143,64 64,49.6457143 64,32 C64,14.3542857 49.6457143,0 32,0 Z M32,59.4285714 C16.8228571,59.4285714 4.57142857,47.1771429 4.57142857,32 C4.57142857,16.8228571 16.8228571,4.57142857 32,4.57142857 C47.1771429,4.57142857 59.4285714,16.8228571 59.4285714,32 C59.4285714,47.1771429 47.1771429,59.4285714 32,59.4285714 Z" id="Shape"></path>
                    <path d="M44.6171429,40.7771429 C41.1428571,43.8857143 36.6628571,45.5314286 32,45.5314286 C27.3371429,45.5314286 22.8571429,43.8857143 19.3828571,40.7771429 C18.4685714,39.9542857 17.0057143,40.0457143 16.1828571,40.96 C15.36,41.8742857 15.4514286,43.3371429 16.3657143,44.16 C20.6628571,48 26.24,50.1028571 32,50.1028571 C37.76,50.1028571 43.3371429,48 47.6342857,44.16 C48.5485714,43.3371429 48.64,41.8742857 47.8171429,40.96 C46.9942857,40.0457143 45.5314286,39.9542857 44.6171429,40.7771429 Z" id="Shape"></path>
                    <path d="M21.0285714,31.0857143 C22.9485714,31.0857143 24.5028571,29.8971429 25.2342857,28.2514286 C25.5085714,27.7028571 25.6,27.0628571 25.6,26.5142857 C25.6,23.9542857 23.5885714,21.9428571 21.0285714,21.9428571 C19.1085714,21.9428571 17.5542857,23.1314286 16.8228571,24.7771429 C16.5485714,25.3257143 16.4571429,25.9657143 16.4571429,26.5142857 C16.4571429,29.0742857 18.4685714,31.0857143 21.0285714,31.0857143 Z" id="Shape"></path>
                    <path d="M37.5771429,28.8 L44.16,32.4571429 C44.5257143,32.64 44.8914286,32.7314286 45.2571429,32.7314286 C46.08,32.7314286 46.8114286,32.2742857 47.2685714,31.5428571 C47.9085714,30.4457143 47.4514286,29.0742857 46.3542857,28.4342857 L43.3371429,26.7885714 L46.3542857,25.1428571 C47.4514286,24.5028571 47.8171429,23.1314286 47.2685714,22.0342857 C46.6285714,20.9371429 45.2571429,20.5714286 44.16,21.12 L37.5771429,24.7771429 C36.48,25.4171429 36.1142857,26.7885714 36.6628571,27.8857143 C36.9371429,28.3428571 37.2114286,28.6171429 37.5771429,28.8 Z" id="Shape"></path>
                </g>
            </g>
        </g>
    </g>
</svg>